# AST/ASF file generated using VICON BodyLanguage
# -----------------------------------------------
:version 1.10
:name VICON
:units
  mass 1.0
  length 0.45
  angle deg
:documentation
   .ast/.asf automatically generated from VICON data using
   VICON BodyBuilder and BodyLanguage model FoxedUp or BRILLIANT.MOD
:root
   order TX TY TZ RX RY RZ
   axis XYZ
   position 0 0 0  
   orientation 0 0 0 
:bonedata
  begin
     id 1 
     name lhipjoint
     direction 0.627457 -0.725269 0.283342 
     length 2.53237 
     axis 0 0 0  XYZ
  end
  begin
     id 2 
     name lfemur
     direction 0.34202 -0.939693 0  
     length 7.32496  
     axis 0 0 20  XYZ
    dof rx ry rz
    limits (-160.0 20.0)
           (-70.0 70.0)
           (-60.0 70.0)
  end
  begin
     id 3 
     name ltibia
     direction 0.34202 -0.939693 0   
     length 7.69674   
     axis 0 0 20   XYZ
    dof rx
    limits (-10.0 170.0)
  end
  begin
     id 4 
     name lfoot
     direction 0.127289 -0.349722 0.928166   
     length 1.8612   
     axis -90 7.62852e-016 20   XYZ
    dof rx rz
    limits (-45.0 90.0)
           (-70.0 20.0)
  end
  begin
     id 5 
     name ltoes
     direction 1.53561e-011 -4.21864e-011 1   
     length 0.925608   
     axis -90 7.62852e-016 20   XYZ
    dof rx
    limits (-90.0 20.0)
  end
  begin
     id 6 
     name rhipjoint
     direction -0.609094 -0.738725 0.288599   
     length 2.48624  
     axis 0 0 0  XYZ 
  end
  begin
     id 7 
     name rfemur
     direction -0.34202 -0.939693 0   
     length 7.44259   
     axis 0 0 -20   XYZ
    dof rx ry rz
    limits (-160.0 20.0)
           (-70.0 70.0)
           (-70.0 60.0)
  end
  begin
     id 8 
     name rtibia
     direction -0.34202 -0.939693 0   
     length 7.7781   
     axis 0 0 -20   XYZ
    dof rx
    limits (-10.0 170.0)
 end
 begin
     id 9 
     name rfoot
     direction -0.107015 -0.294021 0.949789   
     length 2.14741  
     axis -90 -7.62852e-016 -20   XYZ
    dof rx rz
    limits (-45.0 90.0)
           (-20.0 70.0)
  end
  begin
     id 10 
     name rtoes
     direction -1.53497e-011 -4.21924e-011 1   
     length 1.0706   
     axis -90 -7.62852e-016 -20   XYZ
    dof rx
    limits (-90.0 20.0)
  end
  begin
     id 11 
     name lowerback
     direction -0.0142066 0.998112 -0.0597545   
     length 1.86627   
     axis 0 0 0   XYZ
    dof rx ry rz
    limits (-20.0 45.0)
           (-30.0 30.0)
           (-30.0 30.0)
  end
  begin
     id 12 
     name upperback
     direction 0.00547294 0.999744 0.0219437   
     length 1.86272   
     axis 0 0 0   XYZ
    dof rx ry rz
    limits (-20.0 45.0)
           (-30.0 30.0)
           (-30.0 30.0)
  end
  begin
     id 13 
     name thorax
     direction 0.0116162 0.998704 0.0495538   
     length 1.8703   
     axis 0 0 0   XYZ
    dof rx ry rz
    limits (-20.0 45.0)
           (-30.0 30.0)
           (-30.0 30.0)
  end
  begin
     id 14 
     name lowerneck
     direction -0.0106574 0.998739 0.0490586   
     length 1.8074   
     axis 0 0 0   XYZ
    dof rx ry rz
    limits (-20.0 45.0)
           (-30.0 30.0)
           (-30.0 30.0)
  end
  begin
     id 15 
     name upperneck
     direction 0.030527 0.976587 -0.212944   
     length 1.80681   
     axis 0 0 0   XYZ
    dof rx ry rz
    limits (-20.0 45.0)
           (-30.0 30.0)
           (-30.0 30.0)
  end
  begin
     id 16
     name head
     direction 0.00869225 0.997035 -0.0764531  
     length 1.8313  
     axis 0 0 0   XYZ
    dof rx ry rz
    limits (-20.0 45.0)
           (-30.0 30.0)
           (-30.0 30.0)
  end
  begin
     id 17 
     name lclavicle
     direction 0.915958 0.399447 0.0382386  
     length 3.78965  
     axis 0 0 0   XYZ
    dof ry rz
    limits (-20.0 10.0)
           (0.0 20.0)
  end
  begin
     id 18 
     name lhumerus
     direction 1 -4.48967e-011 3.19303e-027   
     length 4.78095   
     axis -180 -30 -90   XYZ
    dof rx ry rz
    limits (-60.0 90.0)
           (-90.0 90.0)
           (-90.0 90.0)
  end
  begin
     id 19
     name lradius
     direction 1 -4.48967e-011 -3.77974e-027   
     length 3.58615   
     axis -180 -30 -90   XYZ
    dof rx
    limits (-10.0 170.0)
  end
  begin
     id 20
     name lwrist
     direction 1 -4.48927e-011 1.2807e-027   
     length 1.79307   
     axis 1.91374e-015 90 90   XYZ
    dof ry
    limits (-180.0 0.0)
 end
  begin
     id 21 
     name lhand
     direction 1 -4.49036e-011 2.5614e-027   
     length 0.659812   
     axis -1.63439e-015 90 90   XYZ
    dof rx rz
    limits (-90.0 90.0)
           (-45.0 45.0)
  end
  begin
     id 22 
     name lfingers
     direction 1 -4.49052e-011 5.1228e-027   
     length 0.531957   
     axis -3.26879e-015 90 90   XYZ
    dof rx
    limits (0.0 90.0)
  end
  begin
     id 23
     name lthumb
     direction 0.707107 -6.35012e-011 0.707107   
     length 0.763787   
     axis -90 45 2.85299e-015   XYZ
    dof rx rz
    limits (-45.0 45.0)
           (-45.0 45.0)
  end
  begin
     id 24 
     name rclavicle
     direction -0.895351 0.435135 0.0948887   
     length 3.70497  
     axis 0 0 0   XYZ 
    dof ry rz
    limits (-10.0 20.0)
           (-20.0 0.0)
  end
  begin
     id 25 
     name rhumerus
     direction -1 -4.48971e-011 2.38946e-027  
     length 4.48913   
     axis -180 30 90   XYZ
    dof rx ry rz
    limits (-90.0 60.0)
           (-90.0 90.0)
           (-90.0 90.0)
  end
  begin
     id 26 
     name rradius
     direction -1 -4.4895e-011 4.38668e-027   
     length 3.7051   
     axis -180 30 90   XYZ
    dof rx
    limits (-10.0 170.0)
  end
  begin
     id 27 
     name rwrist
     direction -1 -4.49007e-011 1.2807e-027   
     length 1.85255   
     axis 1.91374e-015 -90 -90   XYZ
    dof ry
    limits (-180.0 0.0)
  end
  begin
     id 28
     name rhand
     direction -1 -4.48851e-011 2.5614e-027   
     length 0.449136   
     axis -1.63439e-015 -90 -90   XYZ
    dof rx rz
    limits (-90.0 90.0)
           (-45.0 45.0)
  end
  begin
     id 29
     name rfingers
     direction -1 -4.49128e-011 5.1228e-027   
     length 0.362105   
     axis -3.26879e-015 -90 -90   XYZ
    dof rx
    limits (0.0 90.0)
  end
  begin
     id 30
     name rthumb
     direction -0.707107 -6.34851e-011 0.707107   
     length 0.519912   
     axis -90 -45 -2.85299e-015   XYZ
    dof rx rz
    limits (-45.0 45.0)
           (-45.0 45.0)
  end
:hierarchy
  begin
    root lhipjoint rhipjoint lowerback
    lhipjoint lfemur
    lfemur ltibia
    ltibia lfoot
    lfoot ltoes
    rhipjoint rfemur
    rfemur rtibia
    rtibia rfoot
    rfoot rtoes
    lowerback upperback
    upperback thorax
    thorax lowerneck lclavicle rclavicle
    lowerneck upperneck
    upperneck head
    lclavicle lhumerus
    lhumerus lradius
    lradius lwrist
    lwrist lhand lthumb
    lhand lfingers
    rclavicle rhumerus
    rhumerus rradius
    rradius rwrist
    rwrist rhand rthumb
    rhand rfingers
  end

#!OML:ASF I:\Actors\actors\Patient Classification 2\Patient 1\Session 1\actor1.ASF
:FULLY-SPECIFIED
:DEGREES
29
root -0.797318 18.6683 6.05918 2.01354 -0.8367 -3.07993
lowerback 9.84771 0.483063 0.92581
upperback -3.49825 0.799154 0.290504
thorax -9.26081 0.342233 -0.353208
lowerneck -9.54662 -1.80033 -1.31553
upperneck 20.2882 -2.92814 3.17272
head 7.89738 -1.19498 0.98637
rclavicle 5.64051e-015 -5.1684e-015
rhumerus -49.3219 -3.94442 -86.5408
rradius 42.8084
rwrist 16.4226
rhand -5.44506 -34.9676
rfingers 7.12502
rthumb 20.3657 -63.9197
lclavicle 5.64051e-015 -5.1684e-015
lhumerus -43.9429 2.64053 89.1971
lradius 39.0921
lwrist -12.5618
lhand -3.60941 -25.5772
lfingers 7.12502
lthumb 22.129 3.17638
rfemur 7.62753 4.51101 17.7114
rtibia -1.59028e-014
rfoot -18.9839 -12.1936
rtoes -8.84279
lfemur -6.07145 -3.85152 -10.7333
ltibia 24.0089
lfoot -23.1572 12.5253
ltoes -55.9115
30
root -0.796655 18.6685 6.06002 2.00074 -0.831651 -3.08895
lowerback 9.83315 0.479958 0.939241
upperback -3.49817 0.796195 0.285599
thorax -9.25197 0.339904 -0.365321
lowerneck -9.51922 -1.78917 -1.30725
upperneck 20.2953 -2.91725 3.18584
head 7.89457 -1.18816 0.990612
rclavicle 1.5499e-014 5.1684e-015
rhumerus -49.334 -3.93001 -86.5316
rradius 42.7569
rwrist 16.438
rhand -5.50731 -34.7825
rfingers 7.12502
rthumb 20.3059 -63.7409
lclavicle 1.5499e-014 5.1684e-015
lhumerus -43.9537 2.65362 89.1698
lradius 39.0921
lwrist -12.5651
lhand -3.59848 -25.6177
lfingers 7.12502
lthumb 22.1395 3.1346
rfemur 7.64801 4.50673 17.7202
rtibia 1.59028e-014
rfoot -18.9668 -12.1857
rtoes -8.88954
lfemur -6.06156 -3.85109 -10.7256
ltibia 24.0173
lfoot -23.1896 12.5524
ltoes -55.9373
31
root -0.796256 18.6677 6.06005 1.97623 -0.831345 -3.09926
lowerback 9.84225 0.472096 0.949083
upperback -3.49514 0.78696 0.284296
thorax -9.25397 0.334803 -0.370704
lowerneck -9.52672 -1.76483 -1.29937
upperneck 20.344 -2.88935 3.19939
head 7.91146 -1.17245 0.996501
rclavicle 1.9512e-014 3.18055e-015
rhumerus -49.3198 -3.94282 -86.513
rradius 42.7041
rwrist 16.5585
rhand -5.45489 -34.6093
rfingers 7.12502
rthumb 20.3563 -63.5624
lclavicle 1.9512e-014 3.18055e-015
lhumerus -43.9675 2.65401 89.1414
lradius 39.1057
lwrist -12.5929
lhand -3.59002 -25.6139
lfingers 7.12502
lthumb 22.1476 3.13752
rfemur 7.67739 4.50778 17.7304
rtibia -4.77083e-015
rfoot -18.9952 -12.1604
rtoes -8.72177
lfemur -6.03179 -3.86349 -10.7168
ltibia 24.0171
lfoot -23.228 12.5352
ltoes -55.8838
32
root -0.795708 18.6669 6.06052 1.96157 -0.843773 -3.10986
lowerback 9.68403 0.452953 0.878032
upperback -3.38154 0.7533 0.338917
thorax -9.03918 0.326027 -0.264501
lowerneck -9.61973 -1.72521 -1.24531
upperneck 20.3216 -2.82112 3.09542
head 7.91691 -1.14501 0.958935
rclavicle 5.70885e-015 -2.38542e-015
rhumerus -49.1058 -3.8585 -86.4922
rradius 42.6677
rwrist 16.6669
rhand -5.18657 -34.6912
rfingers 7.12502
rthumb 20.6141 -63.6165
lclavicle 5.70885e-015 -2.38542e-015
lhumerus -43.7919 2.75455 89.1474
lradius 39.1031
lwrist -12.6027
lhand -3.58033 -25.6228
lfingers 7.12502
lthumb 22.1569 3.12751
rfemur 7.69499 4.5211 17.7412
rtibia 2.22639e-014
rfoot -19.0185 -12.1504
rtoes -8.61482
lfemur -6.00554 -3.8582 -10.7086
ltibia 24.0102
lfoot -23.2325 12.5044
ltoes -55.8364
33
root -0.795143 18.6673 6.0615 1.9567 -0.855706 -3.10594
lowerback 9.35606 0.4237 0.697469
upperback -3.15823 0.693983 0.452701
thorax -8.60876 0.313456 -0.0281351
lowerneck -9.79158 -1.68034 -1.22718
upperneck 20.2073 -2.72748 2.95111
head 7.90551 -1.11216 0.915823
rclavicle 1.69526e-014 5.56597e-015
rhumerus -48.7176 -3.63175 -86.4604
rradius 42.6405
rwrist 16.6663
rhand -4.99853 -34.8687
rfingers 7.12502
rthumb 20.7948 -63.7744
lclavicle 1.69526e-014 5.56597e-015
lhumerus -43.4289 2.9965 89.1943
lradius 39.0858
lwrist -12.6271
lhand -3.52153 -25.6769
lfingers 7.12502
lthumb 22.2134 3.06668
rfemur 7.70169 4.53298 17.7382
rtibia 1.27222e-014
rfoot -18.9799 -12.1829
rtoes -8.82018
lfemur -5.99045 -3.86413 -10.7222
ltibia 24.0009
lfoot -23.2195 12.5642
ltoes -55.9386
34
root -0.794891 18.6674 6.06191 1.95097 -0.860056 -3.09638
lowerback 9.33842 0.430073 0.676809
upperback -3.1511 0.700038 0.457832
thorax -8.59101 0.31776 -0.0119032
lowerneck -9.78838 -1.68899 -1.24069
upperneck 20.211 -2.73491 2.94065
head 7.90637 -1.11769 0.913937
rclavicle -1.40982e-014 -4.57205e-015
rhumerus -48.7354 -3.58723 -86.4475
rradius 42.6577
rwrist 16.6169
rhand -5.11062 -34.9109
rfingers 7.12502
rthumb 20.6871 -63.8283
lclavicle -1.40982e-014 -4.57205e-015
lhumerus -43.402 2.99044 89.1948
lradius 39.0922
lwrist -12.6082
lhand -3.45479 -25.6767
lfingers 7.12502
lthumb 22.2774 3.05925
rfemur 7.70872 4.53718 17.7291
rtibia 2.70347e-014
rfoot -18.9315 -12.2179
rtoes -9.09721
lfemur -5.97798 -3.87332 -10.7381
ltibia 23.9951
lfoot -23.2059 12.5575
ltoes -55.9387
35
root -0.794555 18.6676 6.06231 1.96238 -0.862744 -3.09719
lowerback 9.62092 0.460381 0.854481
upperback -3.37356 0.759422 0.340744
thorax -8.99375 0.330685 -0.249701
lowerneck -9.60202 -1.72092 -1.20395
upperneck 20.342 -2.8105 3.03456
head 7.91874 -1.14258 0.933093
rclavicle 8.9919e-015 -2.38542e-015
rhumerus -49.13 -3.7451 -86.486
rradius 42.7057
rwrist 16.5801
rhand -5.2223 -34.9987
rfingers 7.12502
rthumb 20.5798 -63.9278
lclavicle 8.9919e-015 -2.38542e-015
lhumerus -43.7492 2.72018 89.108
lradius 39.1463
lwrist -12.5317
lhand -3.42326 -25.6013
lfingers 7.12502
lthumb 22.3077 3.13098
rfemur 7.6937 4.53949 17.7292
rtibia -2.70347e-014
rfoot -18.9137 -12.2353
rtoes -9.21527
lfemur -5.98886 -3.86426 -10.7341
ltibia 23.9909
lfoot -23.1829 12.5347
ltoes -55.8941
